#!OML:ASF I:\salsa\salsa 7_09\Patient 1\Session 1\dancermale.ASF
:FULLY-SPECIFIED
:DEGREES
1846
root -4.0298 17.0722 -9.16303 906.208 158.149 896.777
lowerback -4.26734 3.72797 2.22987
upperback -1.1942 4.86768 0.712657
thorax 1.28121 2.43785 -0.250834
lowerneck -7.15473 -7.38288 -4.19144
upperneck 12.6738 -10.1272 4.91847
head 5.46057 -4.81738 1.48782
rclavicle 1.52816e-014 -4.17448e-015
rhumerus 38.3476 57.2155 -30.5294
rradius 56.851
rwrist 55.2752
rhand 26.6196 14.5275
rfingers 7.12502
rthumb 50.6439 -6.35054
lclavicle 1.52816e-014 -4.17448e-015
lhumerus -33.2881 -30.8657 113.877
lradius 90.4211
lwrist 44.2849
lhand -17.1768 54.8139
lfingers 7.12502
lthumb 9.06472 444.599
rfemur -5.20802 0.753911 24.6471
rtibia 29.8194
rfoot -21.7358 -12.8208
rtoes -11.9005
lfemur -35.0087 -12.12 -2.2422
ltibia 30.9719
lfoot -8.46929 3.31736
ltoes 10.7806
1847
root -3.9234 17.0566 -9.09678 906.241 157.93 896.727
lowerback -4.40365 3.63449 2.32351
upperback -1.283 4.73638 0.749095
thorax 1.26744 2.37196 -0.267251
lowerneck -7.072 -7.53956 -4.15772
upperneck 12.6862 -10.3317 4.80605
head 5.45233 -4.9243 1.43464
rclavicle 7.66439e-014 3.8763e-015
rhumerus 36.9903 57.7776 -32.4158
rradius 58.1244
rwrist 54.7316
rhand 28.1946 14.3871
rfingers 7.12502
rthumb 52.0767 -5.67291
lclavicle 7.66439e-014 3.8763e-015
lhumerus -33.0705 -30.2816 114.022
lradius 90.5219
lwrist 45.0707
lhand -17.2513 55.3704
lfingers 7.12502
lthumb 8.99286 445.159
rfemur -4.95403 0.762393 24.4741
rtibia 29.894
rfoot -21.4556 -13.1096
rtoes -12.7268
lfemur -34.759 -12.4432 -1.55144
ltibia 28.4671
lfoot -7.59613 2.79987
ltoes 9.71568
1848
root -3.80673 17.0435 -9.02389 906.314 157.709 896.754
lowerback -4.63297 3.55263 2.49632
upperback -1.29391 4.61303 0.678912
thorax 1.40043 2.31142 -0.426329
lowerneck -7.09014 -7.62309 -4.24516
upperneck 12.7815 -10.4688 5.01676
head 5.50767 -4.97919 1.49892
rclavicle 4.57143e-014 6.65929e-015
rhumerus 35.7876 58.2967 -34.1609
rradius 59.4895
rwrist 54.0978
rhand 29.5314 14.273
rfingers 7.12502
rthumb 53.2852 -5.03709
lclavicle 4.57143e-014 6.65929e-015
lhumerus -32.5912 -29.9472 113.885
lradius 90.4706
lwrist 45.9717
lhand -17.0936 55.9466
lfingers 7.12502
lthumb 9.145 445.728
rfemur -4.75082 0.77652 24.1724
rtibia 30.1875
rfoot -21.4896 -13.1642
rtoes -12.08
lfemur -34.5935 -12.5478 -1.16302
ltibia 26.5666
lfoot -6.55691 2.27883
ltoes 9.34468
1849
root -3.67517 17.0313 -8.93797 906.396 157.582 896.87
lowerback -4.92121 3.49873 2.53985
upperback -1.26053 4.52907 0.643893
thorax 1.59925 2.27122 -0.47082
lowerneck -7.00755 -7.69485 -4.35789
upperneck 12.6751 -10.5821 5.24274
head 5.48451 -5.02801 1.58118
rclavicle -2.96935e-014 -2.28602e-015
rhumerus 34.8724 58.9423 -35.3612
rradius 61.0515
rwrist 53.4483
rhand 31.2108 14.3795
rfingers 7.12502
rthumb 54.7921 -3.90846
lclavicle -2.96935e-014 -2.28602e-015
lhumerus -32.0178 -29.7065 113.724
lradius 90.3905
lwrist 47.0477
lhand -16.8715 56.7441
lfingers 7.12502
lthumb 9.35935 446.516
rfemur -4.46034 0.78218 23.7079
rtibia 30.469
rfoot -21.455 -13.1699
rtoes -11.8914
lfemur -34.335 -12.5769 -1.09794
ltibia 25.2304
lfoot -5.02031 1.55984
ltoes 8.434
1850
root -3.53021 17.0232 -8.83928 906.366 157.607 897.019
lowerback -5.09717 3.45756 2.43993
upperback -1.2407 4.47199 0.704748
thorax 1.70363 2.24321 -0.345018
lowerneck -6.79509 -7.79743 -4.29393
upperneck 12.471 -10.7018 5.0741
head 5.37816 -5.10206 1.52241
rclavicle -2.7923e-014 -1.19271e-015
rhumerus 33.9672 59.8629 -36.225
rradius 62.8888
rwrist 52.7731
rhand 32.0803 14.2709
rfingers 7.12502
rthumb 55.5668 -3.44964
lclavicle -2.7923e-014 -1.19271e-015
lhumerus -31.523 -29.4127 113.649
lradius 90.3557
lwrist 48.4231
lhand -16.9766 57.6562
lfingers 7.12502
lthumb 9.25793 447.433
rfemur -3.99498 0.815353 23.16
rtibia 30.7606
rfoot -21.2377 -13.1815
rtoes -12.0474
lfemur -33.7924 -12.4454 -1.33612
ltibia 24.3027
lfoot -3.24132 0.637705
ltoes 7.4455
1851
root -3.36855 17.0211 -8.73317 906.12 157.62 897.23
lowerback -5.02568 3.36117 2.44127
upperback -1.23174 4.34513 0.726905
thorax 1.66816 2.17963 -0.336262
lowerneck -6.62657 -7.85916 -4.34851
upperneck 12.6672 -10.7853 5.01095
head 5.41422 -5.14913 1.50825
rclavicle 6.56486e-014 1.04362e-014
rhumerus 32.967 61.0241 -37.1058
rradius 64.9252
rwrist 51.845
rhand 31.7634 14.3535
rfingers 7.12502
rthumb 55.2849 -3.5771
lclavicle 6.56486e-014 1.04362e-014
lhumerus -31.1367 -28.9826 113.512
lradius 90.2888
lwrist 49.7608
lhand -17.1685 58.1307
lfingers 7.12502
lthumb 9.07276 447.916
rfemur -3.28626 0.7791 22.5292
rtibia 31.1652
rfoot -20.9162 -13.3498
rtoes -12.2926
lfemur -32.9026 -11.9045 -2.18955
ltibia 24.1851
lfoot -3.85842 0.111563
ltoes -4.83686
1852
root -3.1913 17.0147 -8.61637 905.992 157.691 897.534
lowerback -5.14097 3.26125 2.49579
upperback -1.22782 4.20617 0.656436
thorax 1.74211 2.11091 -0.440705
lowerneck -6.36973 -7.86056 -4.40349
upperneck 12.7799 -10.7937 5.00639
head 5.409 -5.15898 1.52334
rclavicle 5.49453e-014 8.94531e-015
rhumerus 31.9872 62.1674 -38.0223
rradius 67.1427
rwrist 50.6834
rhand 32.1407 14.8709
rfingers 7.12502
rthumb 55.6205 -2.80916
lclavicle 5.49453e-014 8.94531e-015
lhumerus -30.7247 -28.5275 113.226
lradius 90.1798
lwrist 50.8612
lhand -17.1799 58.3818
lfingers 7.12502
lthumb 9.06178 448.167
rfemur -2.65457 0.74834 21.7833
rtibia 31.6425
rfoot -20.4638 -13.6638
rtoes -12.901
lfemur -32.0022 -10.8214 -3.54123
ltibia 24.8414
lfoot -5.80675 0.00180296
ltoes -10.5747
